<svg width="13" height="87" viewBox="0 0 13 87" fill="none" xmlns="http://www.w3.org/2000/svg">
<path id="Arrow 1" d="M7 1C7 0.723858 6.77614 0.5 6.5 0.5C6.22386 0.5 6 0.723858 6 1L7 1ZM6.5 83.8867L9.38675 81L6.5 78.1132L3.61325 81L6.5 83.8867ZM6 3.85714C6 4.13329 6.22386 4.35714 6.5 4.35714C6.77614 4.35714 7 4.13329 7 3.85714H6ZM7 9.57143C7 9.29528 6.77614 9.07143 6.5 9.07143C6.22386 9.07143 6 9.29528 6 9.57143H7ZM6 15.2857C6 15.5619 6.22386 15.7857 6.5 15.7857C6.77614 15.7857 7 15.5619 7 15.2857H6ZM7 21C7 20.7239 6.77614 20.5 6.5 20.5C6.22386 20.5 6 20.7239 6 21H7ZM6 26.7143C6 26.9904 6.22386 27.2143 6.5 27.2143C6.77614 27.2143 7 26.9904 7 26.7143H6ZM7 32.4286C7 32.1524 6.77614 31.9286 6.5 31.9286C6.22386 31.9286 6 32.1524 6 32.4286H7ZM6 38.1429C6 38.419 6.22386 38.6429 6.5 38.6429C6.77614 38.6429 7 38.419 7 38.1429H6ZM7 43.8571C7 43.581 6.77614 43.3571 6.5 43.3571C6.22386 43.3571 6 43.581 6 43.8571H7ZM6 49.5714C6 49.8476 6.22386 50.0714 6.5 50.0714C6.77614 50.0714 7 49.8476 7 49.5714H6ZM7 55.2857C7 55.0096 6.77614 54.7857 6.5 54.7857C6.22386 54.7857 6 55.0096 6 55.2857H7ZM6 61C6 61.2761 6.22386 61.5 6.5 61.5C6.77614 61.5 7 61.2761 7 61H6ZM7 66.7143C7 66.4381 6.77614 66.2143 6.5 66.2143C6.22386 66.2143 6 66.4381 6 66.7143H7ZM6 72.4286C6 72.7047 6.22386 72.9286 6.5 72.9286C6.77614 72.9286 7 72.7047 7 72.4286H6ZM7 78.1429C7 77.8667 6.77614 77.6429 6.5 77.6429C6.22386 77.6429 6 77.8667 6 78.1429H7ZM6 1V3.85714H7V1L6 1ZM6 9.57143L6 15.2857H7L7 9.57143H6ZM6 21L6 26.7143H7L7 21H6ZM6 32.4286V38.1429H7V32.4286H6ZM6 43.8571L6 49.5714H7L7 43.8571H6ZM6 55.2857L6 61H7L7 55.2857H6ZM6 66.7143V72.4286H7V66.7143H6ZM6 78.1429L6 81H7L7 78.1429H6ZM7.5 1C7.5 0.447715 7.05228 5.96046e-08 6.5 5.96046e-08C5.94772 5.96046e-08 5.5 0.447715 5.5 1L7.5 1ZM6.5 86.7735L12.2735 81L6.5 75.2265L0.726498 81L6.5 86.7735ZM5.5 3.85714C5.5 4.40943 5.94772 4.85714 6.5 4.85714C7.05228 4.85714 7.5 4.40943 7.5 3.85714H5.5ZM7.5 9.57143C7.5 9.01914 7.05228 8.57143 6.5 8.57143C5.94772 8.57143 5.5 9.01914 5.5 9.57143H7.5ZM5.5 15.2857C5.5 15.838 5.94772 16.2857 6.5 16.2857C7.05228 16.2857 7.5 15.838 7.5 15.2857H5.5ZM7.5 21C7.5 20.4477 7.05228 20 6.5 20C5.94772 20 5.5 20.4477 5.5 21H7.5ZM5.5 26.7143C5.5 27.2666 5.94772 27.7143 6.5 27.7143C7.05228 27.7143 7.5 27.2666 7.5 26.7143H5.5ZM7.5 32.4286C7.5 31.8763 7.05228 31.4286 6.5 31.4286C5.94772 31.4286 5.5 31.8763 5.5 32.4286H7.5ZM5.5 38.1429C5.5 38.6951 5.94772 39.1429 6.5 39.1429C7.05228 39.1429 7.5 38.6951 7.5 38.1429H5.5ZM7.5 43.8571C7.5 43.3049 7.05228 42.8571 6.5 42.8571C5.94772 42.8571 5.5 43.3049 5.5 43.8571H7.5ZM5.5 49.5714C5.5 50.1237 5.94772 50.5714 6.5 50.5714C7.05228 50.5714 7.5 50.1237 7.5 49.5714H5.5ZM7.5 55.2857C7.5 54.7334 7.05228 54.2857 6.5 54.2857C5.94772 54.2857 5.5 54.7334 5.5 55.2857H7.5ZM5.5 61C5.5 61.5523 5.94772 62 6.5 62C7.05228 62 7.5 61.5523 7.5 61H5.5ZM7.5 66.7143C7.5 66.162 7.05228 65.7143 6.5 65.7143C5.94772 65.7143 5.5 66.162 5.5 66.7143H7.5ZM5.5 72.4286C5.5 72.9809 5.94772 73.4286 6.5 73.4286C7.05228 73.4286 7.5 72.9809 7.5 72.4286H5.5ZM7.5 78.1429C7.5 77.5906 7.05228 77.1429 6.5 77.1429C5.94772 77.1429 5.5 77.5906 5.5 78.1429H7.5ZM5.5 1V3.85714H7.5V1L5.5 1ZM5.5 9.57143L5.5 15.2857H7.5L7.5 9.57143H5.5ZM5.5 21L5.5 26.7143H7.5L7.5 21H5.5ZM5.5 32.4286L5.5 38.1429H7.5L7.5 32.4286H5.5ZM5.5 43.8571L5.5 49.5714H7.5L7.5 43.8571H5.5ZM5.5 55.2857L5.5 61H7.5L7.5 55.2857H5.5ZM5.5 66.7143V72.4286H7.5V66.7143H5.5ZM5.5 78.1429L5.5 81H7.5L7.5 78.1429H5.5Z" fill="white"/>
</svg>
