<svg width="16" height="16" viewBox="0 0 16 16" fill="none" xmlns="http://www.w3.org/2000/svg">
<g id="comment-icon" clip-path="url(#clip0_66_7712)">
<g id="Group">
<path id="Vector" d="M12.0188 0.661464H3.98102C2.19157 0.661464 0.727755 1.99207 0.727755 3.61852V8.83718C0.727755 10.4634 2.19186 11.7942 3.98102 11.7942H6.50853C6.14695 13.0945 5.70901 14.2629 4.37111 15.3413C6.92928 14.7466 8.90411 13.5444 10.3535 11.7942H10.7905C12.5796 11.7942 15.2724 10.4636 15.2724 8.83718V3.61852C15.2721 1.99207 13.8083 0.661464 12.0188 0.661464ZM11.6224 5.34757C10.9705 5.34757 10.442 5.82817 10.442 6.42076C10.442 7.01334 10.9705 7.49394 11.6224 7.49394C12.2747 7.49394 12.8032 7.01334 12.8032 6.42076C12.8032 5.82817 12.2747 5.34757 11.6224 5.34757ZM4.37742 5.34757C3.7253 5.34757 3.19668 5.82817 3.19668 6.42076C3.19668 7.01334 3.7253 7.49394 4.37742 7.49394C5.02939 7.49394 5.55815 7.01334 5.55815 6.42076C5.55815 5.82817 5.02939 5.34757 4.37742 5.34757ZM8 5.34757C7.34803 5.34757 6.81926 5.82817 6.81926 6.42076C6.81926 7.01334 7.34803 7.49394 8 7.49394C8.65211 7.49394 9.1806 7.01334 9.1806 6.42076C9.1806 5.82817 8.65211 5.34757 8 5.34757ZM3.98102 0H12.019H12.0198V0.00260419C13.1169 0.00286461 14.112 0.408727 14.831 1.06238L14.8296 1.06368C15.5497 1.71902 15.9968 2.6232 15.9971 3.61813H16V3.61852H15.9971V8.83718H16V8.8377H15.9971C15.9966 9.90151 15.1834 10.8285 14.1004 11.4759C13.0917 12.0786 11.818 12.453 10.7905 12.4531V12.4558H10.7903V12.4531H10.7077C9.98227 13.2746 9.14034 13.9758 8.17578 14.5514C7.1095 15.1879 5.90312 15.6674 4.5499 15.982L4.54933 15.9799C4.29461 16.0385 4.01397 15.9689 3.82787 15.7779C3.56256 15.5053 3.59064 15.0888 3.89048 14.8476C4.48042 14.3723 4.87166 13.8775 5.15488 13.3588C5.31261 13.0699 5.43939 12.7685 5.54956 12.4554H3.98088H3.97987V12.4527C2.88308 12.4524 1.88801 12.0466 1.16885 11.3929C0.449546 10.7394 0.00300843 9.83471 0.00286518 8.83744H0V8.83705H0.00286518V3.61852H0V3.61761H0.00286518C0.00300843 2.64091 0.433071 1.75262 1.12859 1.10209C1.14134 1.08855 1.15452 1.07527 1.16856 1.06251C1.88786 0.408727 2.88308 0.00260419 3.98045 0.00247398V0H3.98102Z" fill="black"/>
</g>
</g>
<defs>
<clipPath id="clip0_66_7712">
<rect width="16" height="16" fill="white"/>
</clipPath>
</defs>
</svg>
