<svg width="20" height="20" viewBox="0 0 20 20" fill="none" xmlns="http://www.w3.org/2000/svg">
<g id="github">
<path id="Vector" d="M9.99937 1.87207C8.0206 1.87215 6.10642 2.57633 4.59934 3.85861C3.09226 5.14089 2.09062 6.91759 1.77365 8.87081C1.45668 10.824 1.84505 12.8263 2.86929 14.5194C3.89352 16.2124 5.48678 17.4858 7.36397 18.1116C7.78064 18.1846 7.93689 17.9346 7.93689 17.7158C7.93689 17.5179 7.92646 16.8616 7.92646 16.1637C5.83271 16.5491 5.29104 15.6533 5.12437 15.1846C4.93943 14.7287 4.64627 14.3247 4.2702 14.0075C3.97854 13.8512 3.56187 13.4658 4.25978 13.4554C4.52627 13.4843 4.78186 13.5771 5.0049 13.7258C5.22793 13.8744 5.41184 14.0747 5.54104 14.3096C5.65501 14.5143 5.80827 14.6946 5.99203 14.84C6.17579 14.9854 6.38643 15.0931 6.6119 15.157C6.83736 15.2209 7.07321 15.2396 7.30594 15.2122C7.53866 15.1847 7.76368 15.1116 7.9681 14.9971C8.00418 14.5734 8.19299 14.1773 8.49937 13.8825C6.64521 13.6742 4.70771 12.9554 4.70771 9.76793C4.69599 8.93972 5.00161 8.13841 5.56187 7.52835C5.30711 6.80853 5.33692 6.01858 5.64521 5.32001C5.64521 5.32001 6.3431 5.10125 7.93687 6.17418C9.30044 5.79916 10.74 5.79916 12.1035 6.17418C13.6973 5.09085 14.3952 5.32001 14.3952 5.32001C14.7035 6.01857 14.7333 6.80854 14.4785 7.52835C15.0405 8.13737 15.3464 8.93937 15.3327 9.76793C15.3327 12.9658 13.3848 13.6742 11.5306 13.8825C11.7295 14.0841 11.8827 14.3261 11.9797 14.5921C12.0768 14.8581 12.1155 15.1419 12.0931 15.4242C12.0931 16.5388 12.0827 17.4346 12.0827 17.7158C12.0827 17.9346 12.2389 18.195 12.6556 18.1117C14.5295 17.4807 16.1182 16.2044 17.138 14.5104C18.1579 12.8165 18.5426 10.8153 18.2234 8.86393C17.9043 6.91261 16.902 5.13821 15.3956 3.8575C13.8892 2.57678 11.9766 1.8731 9.99937 1.87207Z" fill="#12F7D6"/>
</g>
</svg>
