<svg width="24" height="25" viewBox="0 0 24 25" fill="none" xmlns="http://www.w3.org/2000/svg">
<g id="icon-download">
<g id="Shape">
<path d="M13 3.5C13 2.94772 12.5523 2.5 12 2.5C11.4477 2.5 11 2.94772 11 3.5V13.0858L7.70711 9.79289C7.31658 9.40237 6.68342 9.40237 6.29289 9.79289C5.90237 10.1834 5.90237 10.8166 6.29289 11.2071L11.2929 16.2071C11.6834 16.5976 12.3166 16.5976 12.7071 16.2071L17.7071 11.2071C18.0976 10.8166 18.0976 10.1834 17.7071 9.79289C17.3166 9.40237 16.6834 9.40237 16.2929 9.79289L13 13.0858V3.5Z" fill="#292F36"/>
<path d="M3 14.5C3.55228 14.5 4 14.9477 4 15.5V19.5C4 19.7652 4.10536 20.0196 4.29289 20.2071C4.48043 20.3946 4.73478 20.5 5 20.5H19C19.2652 20.5 19.5196 20.3946 19.7071 20.2071C19.8946 20.0196 20 19.7652 20 19.5V15.5C20 14.9477 20.4477 14.5 21 14.5C21.5523 14.5 22 14.9477 22 15.5V19.5C22 20.2957 21.6839 21.0587 21.1213 21.6213C20.5587 22.1839 19.7957 22.5 19 22.5H5C4.20435 22.5 3.44129 22.1839 2.87868 21.6213C2.31607 21.0587 2 20.2957 2 19.5V15.5C2 14.9477 2.44772 14.5 3 14.5Z" fill="#292F36"/>
</g>
</g>
</svg>
