<svg width="16" height="16" viewBox="0 0 16 16" fill="none" xmlns="http://www.w3.org/2000/svg">
<g id="icon-share">
<g id="Shape">
<path d="M7.5286 0.862254C7.78895 0.601905 8.21106 0.601905 8.4714 0.862254L11.1381 3.52892C11.3984 3.78927 11.3984 4.21138 11.1381 4.47173C10.8777 4.73208 10.4556 4.73208 10.1953 4.47173L8.66667 2.94313L8.66667 10.0003C8.66667 10.3685 8.36819 10.667 8 10.667C7.63181 10.667 7.33333 10.3685 7.33333 10.0003L7.33333 2.94313L5.80474 4.47173C5.54439 4.73208 5.12228 4.73208 4.86193 4.47173C4.60158 4.21138 4.60158 3.78927 4.86193 3.52892L7.5286 0.862254Z" fill="#2D3648"/>
<path d="M2.66667 7.33366C3.03486 7.33366 3.33333 7.63213 3.33333 8.00033V13.3337C3.33333 13.5105 3.40357 13.68 3.5286 13.8051C3.65362 13.9301 3.82319 14.0003 4 14.0003H12C12.1768 14.0003 12.3464 13.9301 12.4714 13.8051C12.5964 13.68 12.6667 13.5105 12.6667 13.3337V8.00033C12.6667 7.63213 12.9651 7.33366 13.3333 7.33366C13.7015 7.33366 14 7.63213 14 8.00033V13.3337C14 13.8641 13.7893 14.3728 13.4142 14.7479C13.0391 15.1229 12.5304 15.3337 12 15.3337H4C3.46957 15.3337 2.96086 15.1229 2.58579 14.7479C2.21071 14.3728 2 13.8641 2 13.3337V8.00033C2 7.63213 2.29848 7.33366 2.66667 7.33366Z" fill="#2D3648"/>
</g>
</g>
</svg>
