<svg width="14" height="15" viewBox="0 0 14 15" fill="none" xmlns="http://www.w3.org/2000/svg">
<g id="icon-mail">
<path id="Shape" fill-rule="evenodd" clip-rule="evenodd" d="M0.584063 3.98988C0.583969 3.99564 0.583959 4.00139 0.584034 4.00715V11C0.584034 11.9638 1.3702 12.75 2.33403 12.75H11.6674C12.6312 12.75 13.4174 11.9638 13.4174 11V4.00721C13.4174 4.00141 13.4174 3.9956 13.4173 3.9898C13.4118 3.03063 12.6278 2.25 11.6674 2.25H2.33403C1.37358 2.25 0.589541 3.03067 0.584063 3.98988ZM1.81287 3.7398C1.90934 3.54904 2.10772 3.41667 2.33403 3.41667H11.6674C11.8937 3.41667 12.0921 3.54904 12.1885 3.7398L7.0007 7.37128L1.81287 3.7398ZM12.2507 5.12038V11C12.2507 11.3195 11.9869 11.5833 11.6674 11.5833H2.33403C2.01453 11.5833 1.7507 11.3195 1.7507 11V5.12038L6.66618 8.56122C6.86703 8.70182 7.13437 8.70182 7.33522 8.56122L12.2507 5.12038Z" fill="#12F7D6"/>
</g>
</svg>
