<svg width="14" height="15" viewBox="0 0 14 15" fill="none" xmlns="http://www.w3.org/2000/svg">
<g id="icon-link">
<g id="Shape">
<path d="M9.91511 1.1222C8.99742 1.11423 8.11332 1.46701 7.45321 2.10456L7.44718 2.11047L6.44385 3.10797C6.21538 3.33511 6.2143 3.70445 6.44144 3.93292C6.66858 4.16139 7.03793 4.16247 7.2664 3.93533L8.26658 2.94096C8.70634 2.51767 9.29451 2.28352 9.90497 2.28883C10.5168 2.29414 11.102 2.53954 11.5346 2.97215C11.9672 3.40477 12.2126 3.99 12.2179 4.6018C12.2232 5.21199 11.9893 5.79992 11.5664 6.23962L9.82015 7.98584C9.5836 8.22247 9.29885 8.40553 8.98536 8.52247C8.67188 8.63941 8.33691 8.68757 8.00317 8.66367C7.66944 8.63976 7.34475 8.54437 7.05113 8.38395C6.7575 8.22353 6.50181 8.00184 6.3014 7.73391C6.10843 7.47593 5.74287 7.42323 5.48489 7.6162C5.22691 7.80917 5.17421 8.17474 5.36718 8.43272C5.66779 8.83461 6.05133 9.16715 6.49176 9.40778C6.9322 9.64841 7.41923 9.7915 7.91983 9.82735C8.42043 9.8632 8.92289 9.79097 9.39312 9.61556C9.86335 9.44016 10.2904 9.16567 10.6452 8.81072L12.3951 7.06079L12.4022 7.05356C13.0398 6.39345 13.3925 5.50935 13.3846 4.59166C13.3766 3.67397 13.0085 2.79613 12.3596 2.1472C11.7106 1.49827 10.8328 1.13018 9.91511 1.1222Z" fill="#12F7D6"/>
<path d="M6.08205 5.1726C5.58145 5.13675 5.079 5.20898 4.60877 5.38439C4.13857 5.55979 3.71159 5.83425 3.35679 6.18916L1.60678 7.93916L1.59968 7.94639C0.962126 8.6065 0.609345 9.49061 0.61732 10.4083C0.625294 11.326 0.993386 12.2038 1.64231 12.8528C2.29124 13.5017 3.16909 13.8698 4.08677 13.8778C5.00446 13.8857 5.88857 13.5329 6.54868 12.8954L6.55591 12.8883L7.55341 11.8908C7.78122 11.663 7.78122 11.2936 7.55341 11.0658C7.3256 10.838 6.95626 10.838 6.72845 11.0658L5.73473 12.0596C5.29503 12.4825 4.70711 12.7164 4.09691 12.7111C3.48512 12.7058 2.89989 12.4604 2.46727 12.0278C2.03465 11.5952 1.78926 11.01 1.78394 10.3982C1.77864 9.78796 2.01259 9.20004 2.43553 8.76034L4.18174 7.01412C4.41829 6.77749 4.70304 6.59442 5.01652 6.47748C5.33001 6.36054 5.66498 6.31239 5.99871 6.33629C6.33245 6.36019 6.65714 6.45559 6.95076 6.61601C7.24438 6.77643 7.50007 6.99812 7.70048 7.26605C7.89346 7.52403 8.25902 7.57673 8.517 7.38376C8.77498 7.19078 8.82768 6.82522 8.63471 6.56724C8.33409 6.16535 7.95056 5.83281 7.51013 5.59218C7.06969 5.35155 6.58265 5.20846 6.08205 5.1726Z" fill="#12F7D6"/>
</g>
</g>
</svg>
