<svg width="14" height="15" viewBox="0 0 14 15" fill="none" xmlns="http://www.w3.org/2000/svg">
<g id="icon-map-pin" clip-path="url(#clip0_98_1925)">
<g id="Shape">
<path fill-rule="evenodd" clip-rule="evenodd" d="M6.99935 4C5.71068 4 4.66602 5.04467 4.66602 6.33333C4.66602 7.622 5.71068 8.66667 6.99935 8.66667C8.28801 8.66667 9.33268 7.622 9.33268 6.33333C9.33268 5.04467 8.28801 4 6.99935 4ZM5.83268 6.33333C5.83268 5.689 6.35502 5.16667 6.99935 5.16667C7.64368 5.16667 8.16602 5.689 8.16602 6.33333C8.16602 6.97767 7.64368 7.5 6.99935 7.5C6.35502 7.5 5.83268 6.97767 5.83268 6.33333Z" fill="#12F7D6"/>
<path fill-rule="evenodd" clip-rule="evenodd" d="M6.67546 14.4018C6.67563 14.4019 6.67577 14.402 6.99935 13.9167L6.67546 14.4018C6.8714 14.5324 7.12698 14.5327 7.32292 14.402L6.99935 13.9167C7.32292 14.402 7.32276 14.4021 7.32292 14.402L7.32491 14.4007L7.32879 14.3981L7.34216 14.3891C7.35352 14.3813 7.36972 14.3703 7.39044 14.3559C7.43187 14.3272 7.49141 14.2854 7.56647 14.2312C7.71653 14.1228 7.92897 13.9646 8.18303 13.7623C8.69024 13.3584 9.36804 12.775 10.0478 12.0574C11.3835 10.6475 12.8327 8.60947 12.8327 6.33333C12.8327 4.78624 12.2181 3.30251 11.1241 2.20854C10.0302 1.11458 8.54644 0.5 6.99935 0.5C5.45225 0.5 3.96852 1.11458 2.87456 2.20854C1.7806 3.30251 1.16602 4.78624 1.16602 6.33333C1.16602 8.60947 2.61517 10.6475 3.95088 12.0574C4.63066 12.775 5.30846 13.3584 5.81566 13.7623C6.06973 13.9646 6.28217 14.1228 6.43223 14.2312C6.50729 14.2854 6.56682 14.3272 6.60826 14.3559C6.62898 14.3703 6.64518 14.3813 6.65653 14.3891L6.6699 14.3981L6.67379 14.4007L6.67546 14.4018ZM3.69952 3.0335C4.57469 2.15833 5.76167 1.66667 6.99935 1.66667C8.23703 1.66667 9.42401 2.15833 10.2992 3.0335C11.1743 3.90867 11.666 5.09566 11.666 6.33333C11.666 8.14053 10.4902 9.89415 9.20088 11.2551C8.56816 11.9229 7.93346 12.4697 7.45629 12.8497C7.2787 12.9911 7.12358 13.1089 6.99935 13.2007C6.87511 13.1089 6.72 12.9911 6.54241 12.8497C6.06524 12.4697 5.43054 11.9229 4.79782 11.2551C3.50853 9.89415 2.33268 8.14053 2.33268 6.33333C2.33268 5.09566 2.82435 3.90867 3.69952 3.0335Z" fill="#12F7D6"/>
</g>
</g>
<defs>
<clipPath id="clip0_98_1925">
<rect width="14" height="14" fill="white" transform="translate(0 0.5)"/>
</clipPath>
</defs>
</svg>
