<svg width="20" height="20" viewBox="0 0 20 20" fill="none" xmlns="http://www.w3.org/2000/svg">
<g id="icon-instagram" clip-path="url(#clip0_217_1343)">
<g id="Shape">
<path fill-rule="evenodd" clip-rule="evenodd" d="M8.11762 6.26519C8.89554 5.86154 9.78092 5.71346 10.6478 5.84202C11.5321 5.97315 12.3508 6.38521 12.9829 7.01734C13.6151 7.64947 14.0271 8.46814 14.1583 9.35243C14.2868 10.2194 14.1387 11.1047 13.7351 11.8827C13.3314 12.6606 12.6928 13.2914 11.91 13.6854C11.1271 14.0794 10.24 14.2166 9.37471 14.0774C8.50943 13.9381 7.7101 13.5296 7.09039 12.9099C6.47068 12.2902 6.06215 11.4908 5.92292 10.6256C5.78368 9.7603 5.92083 8.87316 6.31485 8.09032C6.70887 7.30749 7.33971 6.66883 8.11762 6.26519ZM10.4034 7.49066C9.88322 7.41353 9.35199 7.50237 8.88524 7.74456C8.41849 7.98674 8.03999 8.36994 7.80358 8.83964C7.56716 9.30934 7.48488 9.84163 7.56842 10.3608C7.65196 10.88 7.89707 11.3596 8.2689 11.7314C8.64072 12.1032 9.12033 12.3483 9.63949 12.4319C10.1587 12.5154 10.6909 12.4331 11.1606 12.1967C11.6303 11.9603 12.0135 11.5818 12.2557 11.115C12.4979 10.6483 12.5868 10.1171 12.5096 9.59691C12.4309 9.06633 12.1837 8.57513 11.8044 8.19585C11.4252 7.81657 10.934 7.56933 10.4034 7.49066Z" fill="#12F7D6"/>
<path d="M14.584 4.58301C14.1237 4.58301 13.7506 4.9561 13.7506 5.41634C13.7506 5.87658 14.1237 6.24967 14.584 6.24967H14.5923C15.0526 6.24967 15.4256 5.87658 15.4256 5.41634C15.4256 4.9561 15.0526 4.58301 14.5923 4.58301H14.584Z" fill="#12F7D6"/>
<path fill-rule="evenodd" clip-rule="evenodd" d="M0.833984 5.83301C0.833984 3.07158 3.07256 0.833008 5.83398 0.833008H14.1673C16.9287 0.833008 19.1673 3.07158 19.1673 5.83301V14.1663C19.1673 16.9278 16.9287 19.1663 14.1673 19.1663H5.83398C3.07256 19.1663 0.833984 16.9278 0.833984 14.1663V5.83301ZM5.83398 2.49967C3.99303 2.49967 2.50065 3.99206 2.50065 5.83301V14.1663C2.50065 16.0073 3.99303 17.4997 5.83398 17.4997H14.1673C16.0083 17.4997 17.5006 16.0073 17.5006 14.1663V5.83301C17.5006 3.99206 16.0083 2.49967 14.1673 2.49967H5.83398Z" fill="#12F7D6"/>
</g>
</g>
<defs>
<clipPath id="clip0_217_1343">
<rect width="20" height="20" fill="white"/>
</clipPath>
</defs>
</svg>
