<svg width="14" height="15" viewBox="0 0 14 15" fill="none" xmlns="http://www.w3.org/2000/svg">
<g id="icon-briefcase">
<path id="Shape" fill-rule="evenodd" clip-rule="evenodd" d="M5.83398 1.66699C5.36986 1.66699 4.92474 1.85137 4.59655 2.17956C4.26836 2.50774 4.08398 2.95286 4.08398 3.41699V4.00033H2.33398C1.36749 4.00033 0.583984 4.78383 0.583984 5.75033V11.5837C0.583984 12.5502 1.36749 13.3337 2.33398 13.3337H11.6673C12.6338 13.3337 13.4173 12.5502 13.4173 11.5837V5.75033C13.4173 4.78383 12.6338 4.00033 11.6673 4.00033H9.91732V3.41699C9.91732 2.95286 9.73294 2.50774 9.40475 2.17956C9.07657 1.85137 8.63145 1.66699 8.16732 1.66699H5.83398ZM8.75065 4.00033V3.41699C8.75065 3.26228 8.68919 3.11391 8.5798 3.00451C8.4704 2.89512 8.32203 2.83366 8.16732 2.83366H5.83398C5.67928 2.83366 5.5309 2.89512 5.42151 3.00451C5.31211 3.11391 5.25065 3.26228 5.25065 3.41699V4.00033H8.75065ZM5.25065 5.16699H8.75065V12.167H5.25065V5.16699ZM4.08398 5.16699H2.33398C2.01182 5.16699 1.75065 5.42816 1.75065 5.75033V11.5837C1.75065 11.9058 2.01182 12.167 2.33398 12.167H4.08398V5.16699ZM9.91732 12.167V5.16699H11.6673C11.9895 5.16699 12.2507 5.42816 12.2507 5.75033V11.5837C12.2507 11.9058 11.9895 12.167 11.6673 12.167H9.91732Z" fill="#12F7D6"/>
</g>
</svg>
