<svg width="17" height="17" viewBox="0 0 17 17" fill="none" xmlns="http://www.w3.org/2000/svg">
<g id="icon-mouse-pointer">
<path id="Shape" fill-rule="evenodd" clip-rule="evenodd" d="M3.00315 1.82082C2.75379 1.71693 2.46638 1.7738 2.27536 1.96481C2.08434 2.15583 2.02748 2.44324 2.13137 2.6926L6.8447 14.0059C6.95136 14.2619 7.20536 14.4252 7.48253 14.4158C7.75971 14.4065 8.00216 14.2266 8.09135 13.964L9.41996 10.0522L12.942 13.5743C13.2024 13.8346 13.6245 13.8346 13.8848 13.5743C14.1452 13.3139 14.1452 12.8918 13.8848 12.6315L10.3628 9.10941L14.2745 7.7808C14.5371 7.69161 14.7171 7.44916 14.7264 7.17199C14.7357 6.89481 14.5725 6.64081 14.3165 6.53415L3.00315 1.82082ZM7.39659 11.8636L3.98473 3.67419L12.1741 7.08604L8.91903 8.19163C8.72286 8.25826 8.56881 8.41231 8.50218 8.60848L7.39659 11.8636Z" fill="#12F7D6"/>
</g>
</svg>
