<svg width="25" height="24" viewBox="0 0 25 24" fill="none" xmlns="http://www.w3.org/2000/svg">
<g id="icon-send">
<path id="Shape" fill-rule="evenodd" clip-rule="evenodd" d="M23.2071 1.29292C23.4306 1.5164 23.5262 1.81935 23.4939 2.11081C23.4848 2.19252 23.4657 2.27332 23.4366 2.35121L16.4439 22.3304C16.3084 22.7174 15.9504 22.9825 15.5408 22.9992C15.1311 23.0159 14.7527 22.7808 14.5862 22.4062L10.7424 13.7576L2.09387 9.91384C1.71919 9.74731 1.48412 9.36894 1.50084 8.95926C1.51755 8.54959 1.78265 8.19162 2.16965 8.05617L22.1488 1.06348C22.2272 1.03414 22.3085 1.01497 22.3907 1.00598C22.4511 0.999338 22.5117 0.998262 22.5717 1.00259C22.8032 1.01913 23.0301 1.11591 23.2071 1.29292ZM18.6943 4.3915L5.21108 9.11063L11.2785 11.8073L18.6943 4.3915ZM12.6928 13.2215L20.1085 5.80571L15.3894 19.289L12.6928 13.2215Z" fill="#292F36"/>
</g>
</svg>
