<svg width="159" height="12" viewBox="0 0 159 12" fill="none" xmlns="http://www.w3.org/2000/svg">
<path id="Line 22" d="M0.166667 6C0.166667 8.94552 2.55448 11.3333 5.5 11.3333C8.44552 11.3333 10.8333 8.94552 10.8333 6C10.8333 3.05448 8.44552 0.666667 5.5 0.666667C2.55448 0.666667 0.166667 3.05448 0.166667 6ZM148.167 6C148.167 8.94552 150.554 11.3333 153.5 11.3333C156.446 11.3333 158.833 8.94552 158.833 6C158.833 3.05448 156.446 0.666667 153.5 0.666667C150.554 0.666667 148.167 3.05448 148.167 6ZM5.5 7H153.5V5H5.5V7Z" fill="#12F7D6"/>
</svg>
