<svg width="16" height="16" viewBox="0 0 16 16" fill="none" xmlns="http://www.w3.org/2000/svg">
<g id="next-icon" clip-path="url(#clip0_66_7716)">
<g id="Group">
<path id="Vector" d="M7.99994 0C5.79087 0 3.79092 0.895428 2.34317 2.34319C0.895421 3.79095 0 5.79092 0 8C0 10.2091 0.895421 12.209 2.34317 13.6568C3.79092 15.1044 5.79087 15.9999 7.99994 15.9999C10.2091 15.9999 12.2091 15.1044 13.6568 13.6568C15.1046 12.209 16 10.2091 16 8C16 5.79079 15.1046 3.79082 13.6568 2.34319C12.2091 0.895428 10.2091 0 7.99994 0ZM6.70622 5.49028C6.48031 5.25799 6.48539 4.88651 6.71767 4.6606C6.94996 4.43469 7.32144 4.43977 7.54747 4.67206L10.391 7.60443L9.97046 8.01354L10.3928 7.60391C10.6191 7.83724 10.6133 8.20963 10.3801 8.43593C10.3732 8.44244 10.3664 8.44882 10.3595 8.45494L7.54747 11.3302C7.32157 11.5624 6.95009 11.5675 6.71767 11.3416C6.48539 11.1158 6.48031 10.7442 6.70622 10.5119L9.15147 8.01185L6.70622 5.49028ZM3.17518 3.17521C4.40992 1.94046 6.11574 1.1768 7.99994 1.1768C9.88413 1.1768 11.5901 1.94046 12.8247 3.17521C14.0596 4.40995 14.8233 6.11579 14.8233 8.00013C14.8233 9.88434 14.0597 11.5902 12.8247 12.8249C11.5901 14.0597 9.88413 14.8235 7.99994 14.8235C6.11574 14.8235 4.40992 14.0598 3.17518 12.8249C1.94045 11.5902 1.17679 9.88421 1.17679 8C1.17679 6.11579 1.94045 4.40995 3.17518 3.17521Z" fill="black"/>
</g>
</g>
<defs>
<clipPath id="clip0_66_7716">
<rect width="16" height="16" fill="white"/>
</clipPath>
</defs>
</svg>
