<svg width="16" height="16" viewBox="0 0 16 16" fill="none" xmlns="http://www.w3.org/2000/svg">
<g id="previous-icon" clip-path="url(#clip0_66_7708)">
<g id="Group">
<path id="Vector" d="M7.99994 0C10.2091 0 12.2091 0.895428 13.6568 2.34319C15.1046 3.79095 16 5.79092 16 8C16 10.2091 15.1046 12.209 13.6568 13.6568C12.2091 15.1044 10.2091 15.9999 7.99994 15.9999C5.79087 15.9999 3.79092 15.1044 2.34317 13.6568C0.895421 12.2092 0 10.2091 0 8C0 5.79079 0.895421 3.79082 2.34317 2.34319C3.79092 0.895428 5.79087 0 7.99994 0ZM9.29365 5.49028C9.51969 5.25799 9.51435 4.88651 9.2822 4.6606C9.05004 4.43469 8.67843 4.43977 8.4524 4.67206L5.60898 7.6043L6.02954 8.01341L5.60715 7.60378C5.38099 7.83711 5.38672 8.2095 5.62004 8.4358C5.62682 8.44231 5.63359 8.44869 5.64062 8.45481L8.4524 11.33C8.67843 11.5623 9.05004 11.5674 9.2822 11.3415C9.51435 11.1157 9.51969 10.7441 9.29365 10.5118L6.84853 8.01172L9.29365 5.49028ZM12.8247 3.17521C11.5901 1.94046 9.88413 1.1768 7.99994 1.1768C6.11574 1.1768 4.40992 1.94046 3.17518 3.17521C1.94045 4.40995 1.17679 6.11579 1.17679 8C1.17679 9.88421 1.94045 11.59 3.17531 12.8248C4.40992 14.0595 6.11574 14.8233 8.00006 14.8233C9.88439 14.8233 11.5902 14.0597 12.8248 12.8248C14.0597 11.5902 14.8235 9.88421 14.8235 8C14.8233 6.11579 14.0596 4.40995 12.8247 3.17521Z" fill="black"/>
</g>
</g>
<defs>
<clipPath id="clip0_66_7708">
<rect width="16" height="16" fill="white"/>
</clipPath>
</defs>
</svg>
