<svg width="33" height="33" viewBox="0 0 33 33" fill="none" xmlns="http://www.w3.org/2000/svg">
<g id="technology-icon 1" clip-path="url(#clip0_120_2120)">
<g id="Group">
<path id="Vector" d="M26.1302 26.5686C26.0651 26.4077 26.0286 26.2309 26.0286 26.0462C26.0286 25.8615 26.0651 25.6847 26.1302 25.5237C26.1979 25.3628 26.2943 25.215 26.4141 25.0937L26.4219 25.0831C26.4896 25.0145 26.5677 24.9485 26.651 24.8984C26.6953 24.8694 26.7422 24.843 26.7943 24.8193V22.6504H24.5781C24.5104 23.1253 24.2865 23.5528 23.9635 23.8826C23.5599 24.2916 23 24.5449 22.3828 24.5449H21.0469V30.4604H24.9661C24.987 30.4261 25.0078 30.3918 25.0313 30.3575C25.0781 30.2889 25.1302 30.2256 25.1875 30.1675C25.3099 30.0435 25.4583 29.9406 25.625 29.872C25.7839 29.8061 25.9583 29.7691 26.1406 29.7691C26.3203 29.7691 26.4974 29.8061 26.6563 29.872C26.8229 29.9406 26.9688 30.0435 27.0938 30.1675C27.2161 30.2916 27.3177 30.442 27.3854 30.6108C27.4505 30.7718 27.487 30.9485 27.487 31.1332C27.487 31.3153 27.4505 31.4894 27.3854 31.6557C27.3177 31.8245 27.2161 31.9749 27.0938 32.0989C26.9714 32.223 26.8229 32.3259 26.6563 32.3945C26.4974 32.4604 26.3229 32.4974 26.1406 32.4974C25.9635 32.4974 25.7943 32.4631 25.6354 32.3971L25.625 32.3945C25.4583 32.3259 25.3125 32.223 25.1875 32.0989C25.112 32.0224 25.0443 31.9327 24.987 31.8404C24.9557 31.7876 24.9271 31.7296 24.9036 31.6741H20.4479C20.2813 31.6741 20.1328 31.6055 20.0234 31.4947C19.9115 31.3813 19.8438 31.2309 19.8438 31.062V24.5449H16.9271V29.9116C16.9714 29.9354 17.0156 29.9591 17.0599 29.9881C17.1406 30.0383 17.2161 30.1016 17.2813 30.1675C17.4063 30.2942 17.5052 30.442 17.5729 30.6108C17.638 30.7718 17.6745 30.9485 17.6745 31.1332C17.6745 31.3127 17.6406 31.4842 17.5755 31.6451L17.5729 31.6557C17.5052 31.8245 17.4036 31.9723 17.2813 32.0989C17.1589 32.223 17.0104 32.3259 16.8438 32.3945C16.6849 32.4604 16.5104 32.4974 16.3281 32.4974C16.1484 32.4974 15.974 32.4604 15.8125 32.3945C15.6458 32.3259 15.4974 32.223 15.375 32.0989C15.2526 31.9749 15.151 31.8245 15.0833 31.6557C15.0182 31.4947 14.9818 31.3179 14.9818 31.1332C14.9818 30.9538 15.0156 30.7823 15.0807 30.6214L15.0833 30.6108C15.151 30.442 15.2526 30.2942 15.375 30.1675C15.4401 30.1016 15.5104 30.0435 15.5885 29.9934L15.599 29.9855C15.6406 29.9617 15.6849 29.938 15.7292 29.9142V24.5449H11.8385V27.3259C11.8385 27.4947 11.7708 27.6451 11.6615 27.7559C11.5521 27.8668 11.4036 27.9354 11.237 27.9354H8.47656C8.45573 27.9776 8.43229 28.0171 8.40625 28.0594C8.35938 28.1306 8.30469 28.1992 8.24219 28.2625L8.23177 28.2731C8.10938 28.3971 7.96094 28.5 7.79427 28.5686C7.63542 28.6346 7.46094 28.6715 7.27865 28.6715C7.10156 28.6715 6.93229 28.6372 6.77344 28.5712L6.76302 28.5686C6.59635 28.5 6.45052 28.3971 6.32552 28.2731C6.20313 28.1491 6.10156 27.9987 6.03385 27.8298C5.96875 27.6689 5.93229 27.4921 5.93229 27.3074C5.93229 27.1253 5.96875 26.9485 6.03385 26.785C6.10156 26.6161 6.20313 26.4657 6.32552 26.3417C6.45313 26.2203 6.60417 26.1174 6.77083 26.0488C6.92969 25.9828 7.10417 25.9459 7.28646 25.9459C7.46875 25.9459 7.64323 25.9828 7.80208 26.0488C7.96094 26.1174 8.10677 26.215 8.22656 26.3391L8.23698 26.347C8.30469 26.4156 8.36979 26.4947 8.41927 26.5792C8.44531 26.624 8.47396 26.6715 8.4974 26.7243H10.638V24.4947C10.2135 24.3997 9.83333 24.1834 9.53906 23.8852C9.14583 23.4868 8.90365 22.9433 8.90365 22.347V20.8984H2.51302V24.8694C2.54688 24.8905 2.58073 24.9116 2.61458 24.9354C2.68229 24.9828 2.74219 25.0356 2.80208 25.0937C2.92448 25.2177 3.02604 25.3681 3.09375 25.5369C3.15885 25.6979 3.19531 25.8747 3.19531 26.0594C3.19531 26.2414 3.15885 26.4208 3.09375 26.5818C3.02604 26.7507 2.92448 26.8984 2.80208 27.0251C2.67969 27.1491 2.53125 27.252 2.36458 27.3206C2.20573 27.3865 2.03125 27.4235 1.84896 27.4235C1.66927 27.4235 1.4974 27.3865 1.33333 27.3206C1.16667 27.252 1.01823 27.1491 0.895833 27.0251C0.773438 26.9011 0.671875 26.7507 0.604167 26.5818C0.536458 26.4156 0.5 26.2388 0.5 26.0541C0.5 25.8747 0.533854 25.7032 0.598958 25.5422L0.601563 25.5317C0.669271 25.3628 0.770833 25.215 0.893229 25.0884C0.96875 25.0119 1.05729 24.9433 1.14844 24.8852C1.19792 24.8536 1.25781 24.8245 1.3125 24.8008V20.2889C1.3125 20.1201 1.38021 19.9697 1.48958 19.8588C1.60156 19.7454 1.75 19.6768 1.91667 19.6768H8.90365V16.7216H3.05469C3.03125 16.7665 3.00781 16.8113 2.97917 16.8562C2.92969 16.938 2.86719 17.0145 2.80208 17.0805C2.67708 17.2071 2.53125 17.3074 2.36458 17.376C2.20573 17.442 2.03125 17.4789 1.84896 17.4789C1.67188 17.4789 1.5026 17.4446 1.34375 17.3786L1.33333 17.376C1.16667 17.3074 1.02083 17.2045 0.895833 17.0805C0.773438 16.9565 0.671875 16.8061 0.604167 16.6372C0.539063 16.4763 0.502604 16.2995 0.502604 16.1148C0.502604 15.9327 0.539063 15.7559 0.604167 15.5923C0.671875 15.4235 0.773438 15.2731 0.895833 15.1491C1.01823 15.0251 1.16667 14.9222 1.33333 14.8536C1.49479 14.785 1.66667 14.748 1.85156 14.748C2.02865 14.748 2.19792 14.7823 2.35677 14.8483L2.36719 14.8509C2.53385 14.9195 2.67969 15.0224 2.80469 15.1464C2.86979 15.2124 2.92708 15.2836 2.97917 15.3628L2.98698 15.3734C3.01042 15.4156 3.03385 15.4604 3.05729 15.5053H8.90365V11.8351C8.90365 11.7454 8.90886 11.6557 8.91927 11.566H5.60677C5.4401 11.566 5.29167 11.4974 5.18229 11.3865C5.07292 11.2757 5.00521 11.1253 5.00521 10.9565V8.15963C4.96354 8.13852 4.92448 8.11478 4.88281 8.08839C4.8125 8.0409 4.74479 7.98549 4.68229 7.92216L4.67188 7.91161C4.54948 7.7876 4.44792 7.6372 4.38021 7.46834C4.3151 7.30739 4.27865 7.13061 4.27865 6.94591C4.27865 6.76649 4.3125 6.59499 4.3776 6.43404L4.38021 6.42348C4.44792 6.25462 4.54948 6.10686 4.67188 5.98021C4.79427 5.8562 4.94271 5.7533 5.10938 5.6847C5.26823 5.61873 5.44271 5.58179 5.625 5.58179C5.80469 5.58179 5.97917 5.61873 6.14063 5.6847C6.30729 5.7533 6.45573 5.8562 6.57813 5.98021C6.69792 6.1095 6.79948 6.26253 6.86719 6.4314C6.93229 6.59235 6.96875 6.76913 6.96875 6.95383C6.96875 7.13852 6.93229 7.3153 6.86719 7.47625C6.79948 7.6372 6.70313 7.78496 6.58333 7.90633L6.57552 7.91689C6.50781 7.98549 6.42969 8.05145 6.34375 8.10158C6.29948 8.12797 6.2526 8.15699 6.20052 8.18074V10.3496H9.46875V10.3654C9.48958 10.3417 9.51302 10.3179 9.53385 10.2968C9.9375 9.88786 10.4974 9.63456 11.1146 9.63456H12.3672V2.53958H8.45313C8.43229 2.57388 8.41146 2.60818 8.38802 2.64248C8.34115 2.71108 8.28906 2.77177 8.23177 2.83245C8.10938 2.95646 7.96094 3.05937 7.79427 3.12797C7.63542 3.19393 7.46094 3.23087 7.27865 3.23087C7.09896 3.23087 6.92188 3.19393 6.76302 3.12797C6.59635 3.05937 6.45052 2.95646 6.32552 2.83245C6.20313 2.70844 6.10156 2.55805 6.03385 2.38918C5.96875 2.22559 5.93229 2.05145 5.93229 1.86412C5.93229 1.68206 5.96875 1.50792 6.03385 1.34169C6.10156 1.17282 6.20313 1.02243 6.32552 0.898417C6.44792 0.774406 6.59635 0.671504 6.76302 0.602902C6.92188 0.536939 7.09635 0.5 7.27865 0.5C7.45573 0.5 7.625 0.534301 7.78385 0.600264L7.79427 0.602902C7.96094 0.671504 8.10677 0.774406 8.23177 0.898417C8.30729 0.974934 8.375 1.06464 8.43229 1.15699C8.46354 1.20712 8.49219 1.26781 8.51823 1.32322H12.9688C13.1354 1.32322 13.2839 1.39182 13.3932 1.50264C13.5052 1.61609 13.5729 1.76649 13.5729 1.93536V9.63456H16.4896V3.08839C16.4453 3.06464 16.401 3.0409 16.3568 3.01187C16.276 2.96174 16.2005 2.89842 16.1354 2.83245C16.0104 2.7058 15.9115 2.55805 15.8438 2.38918C15.7786 2.22823 15.7422 2.05145 15.7422 1.86675C15.7422 1.68734 15.776 1.51583 15.8411 1.35488L15.8438 1.34433C15.9115 1.17546 16.013 1.0277 16.1354 0.901055C16.2578 0.777045 16.4063 0.674142 16.5729 0.605541C16.7318 0.539578 16.9063 0.502639 17.0885 0.502639C17.2682 0.502639 17.4427 0.539578 17.6042 0.605541C17.7708 0.674142 17.9193 0.777045 18.0417 0.901055C18.1641 1.02507 18.2656 1.17546 18.3333 1.34433C18.3984 1.50528 18.4349 1.68206 18.4349 1.86675C18.4349 2.04617 18.401 2.21768 18.3359 2.37863L18.3333 2.38918C18.2656 2.55805 18.1641 2.7058 18.0417 2.83245C17.9766 2.89842 17.9063 2.95646 17.8281 3.00923L17.8177 3.01715C17.776 3.0409 17.7318 3.06464 17.6875 3.08839V9.63193H21.5755V5.67414C21.5755 5.50528 21.6432 5.35488 21.7526 5.24406C21.862 5.13324 22.0104 5.06464 22.1771 5.06464H24.9401C24.9609 5.02243 24.9844 4.98285 25.0104 4.94063C25.0573 4.86939 25.112 4.80079 25.1745 4.73747L25.1849 4.72691C25.3073 4.6029 25.4557 4.5 25.6224 4.4314C25.7813 4.36544 25.9557 4.3285 26.138 4.3285C26.3151 4.3285 26.4844 4.3628 26.6432 4.42876L26.6536 4.4314C26.8203 4.5 26.9661 4.6029 27.0911 4.72691C27.2135 4.85092 27.3151 5.00132 27.3828 5.17018C27.4479 5.33113 27.4844 5.50792 27.4844 5.69261C27.4844 5.87467 27.4479 6.05145 27.3828 6.21504C27.3151 6.3839 27.2135 6.5343 27.0911 6.65831C26.9609 6.77968 26.8125 6.88259 26.6458 6.95119C26.487 7.01715 26.3125 7.05409 26.1302 7.05409C25.9479 7.05409 25.7734 7.01715 25.6146 6.95119C25.4557 6.88259 25.3099 6.78496 25.1901 6.66359L25.1797 6.65567C25.112 6.58707 25.0469 6.50792 24.9974 6.42348C24.9688 6.37863 24.9427 6.33113 24.9193 6.27836H22.7786V9.66623C23.2396 9.74802 23.651 9.97493 23.9661 10.2942C24.3594 10.6926 24.6016 11.2361 24.6016 11.8325V12.1042H30.487V8.13325C30.4531 8.11214 30.4193 8.09103 30.3854 8.06728C30.3177 8.01979 30.2578 7.96702 30.2005 7.90897C30.0781 7.78496 29.9766 7.63456 29.9089 7.4657C29.8438 7.30475 29.8073 7.12797 29.8073 6.94327C29.8073 6.76121 29.8438 6.58179 29.9089 6.42084C29.9766 6.25198 30.0781 6.10422 30.2005 5.97757C30.3229 5.85356 30.4714 5.75066 30.638 5.68206C30.7969 5.61609 30.9714 5.57916 31.1536 5.57916C31.3333 5.57916 31.5078 5.61609 31.6693 5.68206C31.8359 5.75066 31.9844 5.85356 32.1068 5.97757C32.2292 6.10158 32.3307 6.25198 32.3984 6.42084C32.4635 6.58179 32.5 6.75857 32.5 6.94327C32.5 7.12269 32.4661 7.2942 32.401 7.45515L32.3984 7.4657C32.3307 7.63456 32.2292 7.78232 32.1068 7.90897C32.0313 7.98549 31.9427 8.05409 31.8516 8.11214C31.7995 8.1438 31.7422 8.17282 31.6875 8.19921V12.7084C31.6875 12.8773 31.6198 13.0277 31.5104 13.1385C31.3984 13.252 31.25 13.3206 31.0833 13.3206H24.6016V16.2757H29.9453C29.9688 16.2309 29.9922 16.186 30.0208 16.1412C30.0729 16.0594 30.1328 15.9828 30.1979 15.9169C30.3229 15.7902 30.4688 15.69 30.6354 15.6214C30.7943 15.5554 30.9688 15.5185 31.151 15.5185C31.3281 15.5185 31.4974 15.5528 31.6563 15.6187L31.6667 15.6214C31.8333 15.69 31.9792 15.7929 32.1042 15.9169C32.2266 16.0409 32.3281 16.1913 32.3958 16.3602C32.4609 16.5211 32.4974 16.6979 32.4974 16.8826C32.4974 17.0646 32.4609 17.2414 32.3958 17.405C32.3281 17.5739 32.2266 17.7243 32.1042 17.8483C31.9818 17.9723 31.8333 18.0752 31.6667 18.1438C31.5078 18.2098 31.3333 18.2467 31.151 18.2467C30.974 18.2467 30.8047 18.2124 30.6458 18.1464L30.6354 18.1438C30.4688 18.0752 30.3229 17.9723 30.1979 17.8483C30.1328 17.7823 30.0755 17.7111 30.0234 17.6319L30.0156 17.6214C29.9922 17.5792 29.9688 17.5343 29.9453 17.4894H24.6016V21.4288H27.3932C27.5599 21.4288 27.7083 21.4974 27.8177 21.6082C27.9271 21.719 27.9948 21.8694 27.9948 22.0383V24.8377C28.0365 24.8588 28.0755 24.8826 28.1172 24.9116C28.1875 24.9591 28.2552 25.0145 28.3177 25.0778L28.3281 25.0884C28.4505 25.2124 28.5521 25.3628 28.6198 25.5317C28.6849 25.6926 28.7214 25.8694 28.7214 26.0541C28.7214 26.2335 28.6875 26.405 28.6224 26.566L28.6198 26.5765C28.5521 26.7454 28.4505 26.8931 28.3281 27.0198C28.2057 27.1438 28.0573 27.2467 27.8906 27.3153C27.7318 27.3813 27.5573 27.4182 27.375 27.4182C27.1953 27.4182 27.0208 27.3813 26.8594 27.3153C26.6927 27.2467 26.5443 27.1438 26.4219 27.0198C26.3021 26.8905 26.1979 26.7375 26.1302 26.5686ZM14.4297 14.2573H19.0755C19.4375 14.2573 19.7318 14.5554 19.7318 14.9222V19.2573C19.7318 19.624 19.4375 19.9222 19.0755 19.9222H14.4297C14.0677 19.9222 13.7734 19.624 13.7734 19.2573V14.9222C13.7734 14.5554 14.0677 14.2573 14.4297 14.2573ZM22.3854 10.8113H11.1172C10.8594 10.8113 10.6224 10.9195 10.4505 11.0963C10.2656 11.2836 10.151 11.5449 10.151 11.8351V22.3443C10.151 22.6346 10.2656 22.8958 10.4505 23.0831C10.625 23.2599 10.8594 23.3681 11.1172 23.3681H22.3854C22.6432 23.3681 22.8802 23.2599 23.0521 23.0831C23.237 22.8958 23.3516 22.6346 23.3516 22.3443V11.8351C23.3516 11.5449 23.237 11.2836 23.0521 11.0963C22.8802 10.9195 22.6432 10.8113 22.3854 10.8113Z" fill="black"/>
</g>
</g>
<defs>
<clipPath id="clip0_120_2120">
<rect width="32" height="32" fill="white" transform="translate(0.5 0.5)"/>
</clipPath>
</defs>
</svg>
